<svg width="29" height="32" viewBox="0 0 29 32" fill="none" xmlns="http://www.w3.org/2000/svg">
<path fill-rule="evenodd" clip-rule="evenodd" d="M0 13.291C0 14.1253 0.313082 14.8755 0.896505 15.266C1.06362 15.3779 1.35281 15.4355 1.66242 15.4617V30.0652C1.66242 30.8752 2.32401 31.5318 3.14013 31.5318H10.8981V29.8106C7.65992 28.2839 5.34779 25.1365 5.02579 21.4246C3.95857 21.2661 3.14013 20.3524 3.14013 19.2491V16.8659C3.14013 16.226 3.41542 15.6499 3.85488 15.2479C5.98635 14.7678 8.30669 13.8662 10.5918 12.5569C12.8326 11.2728 14.7483 9.76349 16.2217 8.20418C15.5887 9.65396 14.8222 10.924 13.9223 12.0142C16.2635 11.0017 17.8577 9.37384 18.7047 7.13061C18.7745 7.29963 18.8472 7.46845 18.9228 7.63698C20.8172 11.8598 24.0714 14.8527 27.3756 15.8398C27.4704 16.2267 27.5223 16.5879 27.5223 16.8659V19.2491C27.5223 20.3524 26.7039 21.2661 25.6366 21.4246C25.3146 25.1365 23.0025 28.2839 19.7643 29.8106V31.5318H23.0892C26.3536 31.5318 29 28.9054 29 25.6654V16.1603V15.7429C29 15.7301 28.9981 15.7134 28.9943 15.6927C28.9807 14.6587 28.9428 12.2329 28.8818 11.7741C27.9983 5.12877 22.2682 0 15.3312 0C8.66585 0 3.11477 4.73496 1.84713 10.9995C0.82699 10.9995 0 12.0254 0 13.291Z" fill="#944F23"/>
<mask id="mask0_0_400" style="mask-type:luminance" maskUnits="userSpaceOnUse" x="0" y="0" width="29" height="32">
<path fill-rule="evenodd" clip-rule="evenodd" d="M0 13.291C0 14.1253 0.313082 14.8755 0.896505 15.266C1.06362 15.3779 1.35281 15.4355 1.66242 15.4617V30.0652C1.66242 30.8752 2.32401 31.5318 3.14013 31.5318H10.8981V29.8106C7.65992 28.2839 5.34779 25.1365 5.02579 21.4246C3.95857 21.2661 3.14013 20.3524 3.14013 19.2491V16.8659C3.14013 16.226 3.41542 15.6499 3.85488 15.2479C5.98635 14.7678 8.30669 13.8662 10.5918 12.5569C12.8326 11.2728 14.7483 9.76349 16.2217 8.20418C15.5887 9.65396 14.8222 10.924 13.9223 12.0142C16.2635 11.0017 17.8577 9.37384 18.7047 7.13061C18.7745 7.29963 18.8472 7.46845 18.9228 7.63698C20.8172 11.8598 24.0714 14.8527 27.3756 15.8398C27.4704 16.2267 27.5223 16.5879 27.5223 16.8659V19.2491C27.5223 20.3524 26.7039 21.2661 25.6366 21.4246C25.3146 25.1365 23.0025 28.2839 19.7643 29.8106V31.5318H23.0892C26.3536 31.5318 29 28.9054 29 25.6654V16.1603V15.7429C29 15.7301 28.9981 15.7134 28.9943 15.6927C28.9807 14.6587 28.9428 12.2329 28.8818 11.7741C27.9983 5.12877 22.2682 0 15.3312 0C8.66585 0 3.11477 4.73496 1.84713 10.9995C0.82699 10.9995 0 12.0254 0 13.291Z" fill="white"/>
</mask>
<g mask="url(#mask0_0_400)">
<rect x="-9.23568" y="-3.29985" width="49.1338" height="51.3309" fill="#2C1B18"/>
</g>
</svg>
