<svg width="37" height="45" viewBox="0 0 37 45" fill="none" xmlns="http://www.w3.org/2000/svg">
<path fill-rule="evenodd" clip-rule="evenodd" d="M18.5 0C12.7783 0 8.14 4.63832 8.14 10.36V11.4145C7.09004 11.5906 6.29 12.5038 6.29 13.6038V16.1409C6.29 17.2632 7.12276 18.1909 8.20406 18.34C8.60837 21.9732 10.8916 25.0392 14.06 26.5444V29.9501C6.224 30.3719 0 36.8594 0 44.8006H37C37 36.8594 30.776 30.3719 22.94 29.9501V26.5444C26.1084 25.0392 28.3916 21.9732 28.7959 18.34C29.8772 18.191 30.71 17.2632 30.71 16.1409V13.6038C30.71 12.5038 29.9099 11.5906 28.86 11.4145V10.36C28.86 4.63833 24.2217 0 18.5 0Z" fill="#D0C6AC"/>
<mask id="mask0_0_1479" style="mask-type:luminance" maskUnits="userSpaceOnUse" x="0" y="0" width="37" height="45">
<path fill-rule="evenodd" clip-rule="evenodd" d="M18.5 0C12.7783 0 8.14 4.63832 8.14 10.36V11.4145C7.09004 11.5906 6.29 12.5038 6.29 13.6038V16.1409C6.29 17.2632 7.12276 18.1909 8.20406 18.34C8.60837 21.9732 10.8916 25.0392 14.06 26.5444V29.9501C6.224 30.3719 0 36.8594 0 44.8006H37C37 36.8594 30.776 30.3719 22.94 29.9501V26.5444C26.1084 25.0392 28.3916 21.9732 28.7959 18.34C29.8772 18.191 30.71 17.2632 30.71 16.1409V13.6038C30.71 12.5038 29.9099 11.5906 28.86 11.4145V10.36C28.86 4.63833 24.2217 0 18.5 0Z" fill="white"/>
</mask>
<g mask="url(#mask0_0_1479)">
<rect x="-5.91999" width="48.84" height="44.8006" fill="#C9824B"/>
<path fill-rule="evenodd" clip-rule="evenodd" d="M8.14 17.1813V18.6502C8.14 24.3719 12.7783 29.0102 18.5 29.0102C24.2217 29.0102 28.86 24.3719 28.86 18.6502V17.1814C28.86 22.903 24.2217 27.5413 18.5 27.5413C12.7783 27.5413 8.14 22.903 8.14 17.1813Z" fill="black" fill-opacity="0.1"/>
</g>
</svg>
