<svg width="21" height="18" viewBox="0 0 21 18" fill="none" xmlns="http://www.w3.org/2000/svg">
<path d="M7.87498 12.6541C7.87498 13.6538 9.02964 14.3289 10.5 14.3289C11.9703 14.3289 13.125 13.6538 13.125 12.6541C13.125 12.4486 12.9469 12.2819 12.75 12.2819C12.5076 12.2819 12.3994 12.4504 12.375 12.6541C12.142 13.2008 11.5656 13.5318 10.5 13.5846C9.43437 13.5318 8.85794 13.2008 8.62498 12.6541C8.60057 12.4504 8.49237 12.2819 8.24998 12.2819C8.05305 12.2819 7.87498 12.4486 7.87498 12.6541Z" fill="black" fill-opacity="0.6"/>
<path fill-rule="evenodd" clip-rule="evenodd" d="M8.25 8.93232C8.25 9.75452 9.25735 10.421 10.5 10.421C11.7426 10.421 12.75 9.75452 12.75 8.93232" fill="black" fill-opacity="0.16"/>
<ellipse cx="5.62501" cy="5.58269" rx="1.125" ry="1.11654" fill="black" fill-opacity="0.6"/>
<ellipse cx="15.375" cy="5.58269" rx="1.125" ry="1.11654" fill="black" fill-opacity="0.6"/>
<path d="M2.93064 3.19304C3.66469 2.16792 5.67708 1.59309 7.41054 2.01558C7.61167 2.0646 7.81476 1.94251 7.86415 1.74289C7.91354 1.54328 7.79053 1.34171 7.5894 1.29269C5.57629 0.802045 3.24599 1.46769 2.3193 2.76184C2.19933 2.92939 2.23892 3.16174 2.40774 3.28081C2.57656 3.39989 2.81067 3.36059 2.93064 3.19304Z" fill="black" fill-opacity="0.6"/>
<path d="M18.0694 3.19304C17.3353 2.16792 15.3229 1.59309 13.5895 2.01558C13.3883 2.0646 13.1852 1.94251 13.1359 1.74289C13.0865 1.54328 13.2095 1.34171 13.4106 1.29269C15.4237 0.802045 17.754 1.46769 18.6807 2.76184C18.8007 2.92939 18.7611 3.16174 18.5923 3.28081C18.4234 3.39989 18.1893 3.36059 18.0694 3.19304Z" fill="black" fill-opacity="0.6"/>
</svg>
