<svg width="21" height="12" viewBox="0 0 21 12" fill="none" xmlns="http://www.w3.org/2000/svg">
<path fill-rule="evenodd" clip-rule="evenodd" d="M0.389578 11.4953C0.329422 11.7184 0.0856872 11.7669 0.021926 11.4953C-0.110278 9.61648 0.0219264 0.133724 10.5 0.00133586C20.9781 -0.131052 21.1103 9.61648 20.9781 11.4953C20.9143 11.7669 20.6706 11.7184 20.6104 11.4953C20.6955 11.2117 20.0045 6.24969 18.2207 4.92732C17.8973 4.70408 16.8885 4.49133 15.5294 4.33239L16.1987 2.73799L14.9152 4.2666C13.6226 4.14003 12.0915 4.06098 10.5575 4.0599C7.00882 4.05741 3.44444 4.46818 2.77931 4.92732C0.995458 6.24969 0.304514 11.2117 0.389578 11.4953Z" fill="#28354B"/>
<mask id="mask0_0_980" style="mask-type:luminance" maskUnits="userSpaceOnUse" x="0" y="0" width="21" height="12">
<path fill-rule="evenodd" clip-rule="evenodd" d="M0.389578 11.4953C0.329422 11.7184 0.0856872 11.7669 0.021926 11.4953C-0.110278 9.61648 0.0219264 0.133724 10.5 0.00133586C20.9781 -0.131052 21.1103 9.61648 20.9781 11.4953C20.9143 11.7669 20.6706 11.7184 20.6104 11.4953C20.6955 11.2117 20.0045 6.24969 18.2207 4.92732C17.8973 4.70408 16.8885 4.49133 15.5294 4.33239L16.1987 2.73799L14.9152 4.2666C13.6226 4.14003 12.0915 4.06098 10.5575 4.0599C7.00882 4.05741 3.44444 4.46818 2.77931 4.92732C0.995458 6.24969 0.304514 11.2117 0.389578 11.4953Z" fill="white"/>
</mask>
<g mask="url(#mask0_0_980)">
<rect x="-13.7649" y="-6.3842" width="48.5301" height="51.0843" fill="#2C1B18"/>
</g>
</svg>
