<svg width="29" height="16" viewBox="0 0 29 16" fill="none" xmlns="http://www.w3.org/2000/svg">
<g opacity="0.439991">
<path fill-rule="evenodd" clip-rule="evenodd" d="M18.7352 7.56125C20.9184 12.428 24.926 15.6449 28.7124 16V13.4315C28.7124 6.01349 22.6534 0 15.1792 0C8.57991 0 3.08388 4.688 1.88757 10.8916C1.86806 10.8908 1.84848 10.8904 1.82882 10.8904C0.81879 10.8904 0 11.9062 0 13.1592C0 14.3357 0.721773 15.303 1.64593 15.4169V15.4449C1.70376 15.4397 1.76181 15.434 1.8201 15.4281C1.823 15.4281 1.82591 15.4281 1.82882 15.4281C1.94759 15.4281 2.06371 15.414 2.17617 15.3872C4.70211 15.0677 7.62241 14.0736 10.4867 12.4324C12.7054 11.161 14.602 9.66667 16.0608 8.12282C15.4341 9.55822 14.6753 10.8156 13.7842 11.895C16.1022 10.8926 17.6806 9.28088 18.5193 7.0599C18.5884 7.22724 18.6603 7.39439 18.7352 7.56125Z" fill="white" fill-opacity="0.16"/>
</g>
</svg>
